<svg width="1451" height="1280" viewBox="0 0 1451 1280" fill="none" xmlns="http://www.w3.org/2000/svg">
<path d="M398.667 205.135C389.467 206.068 379.333 207.535 376 208.335C372.667 209.135 367.067 210.335 363.467 211.001C359.733 211.668 354.133 213.135 350.8 214.201C347.333 215.401 339.333 217.801 332.667 219.801C326.133 221.801 320.133 223.935 319.467 224.468C318.667 225.135 317.333 225.668 316.267 225.668C314.267 225.668 312.267 226.468 294.667 234.735C263.733 249.001 232.133 272.601 212.667 295.801C208.933 300.068 205.333 304.468 204.4 305.401C197.733 312.468 182 339.935 176 355.001C174.4 359.001 172.4 363.801 171.733 365.668C167.2 376.468 164.8 386.468 158.533 419.668C157.867 423.268 157.2 439.801 157.2 456.335C157.2 479.535 157.6 488.068 159.333 494.201C160.4 498.468 162 506.335 162.667 511.535C166.267 538.468 182.133 574.868 200.8 599.135C211.733 613.401 233.467 632.868 249.333 642.601C267.2 653.668 304.933 670.735 324.667 676.868C328.4 677.935 337.067 680.735 344 682.868C350.933 685.001 367.733 689.935 381.333 693.668C394.933 697.401 413.2 702.601 422 705.135C430.8 707.668 438.933 709.668 440.133 709.668C441.333 709.668 445.333 710.601 448.8 711.668C452.4 712.735 467.067 716.868 481.333 721.001C517.2 731.001 516 730.601 535.467 737.801C570.8 750.868 588.667 761.135 605.6 778.335C617.2 790.201 621.067 796.601 626.133 812.335C629.333 822.601 629.733 825.668 629.733 843.668C629.733 863.001 629.6 864.068 625.467 874.335C623.2 880.201 619.067 887.935 616.267 891.668C605.867 905.401 586.133 918.335 566.667 924.201C555.333 927.668 529.2 931.935 513.333 932.868C489.6 934.468 438.533 928.601 414 921.535C393.733 915.668 391.067 914.868 383.333 912.468C365.6 906.735 338.533 893.935 310.667 878.068C291.467 867.268 263.467 846.068 244.4 828.068C238.667 822.601 235.467 820.468 234.267 821.268C233.2 821.801 229.867 825.268 226.8 829.001C217.333 840.201 209.067 849.801 199.333 861.001C194.133 866.868 185.2 877.268 179.333 884.201C173.467 891.135 162.267 903.935 154.267 912.735C146.4 921.401 140 929.135 140 929.668C140 932.868 160.133 953.268 180 970.201C214 999.268 246.267 1019.13 288.667 1037.27C323.333 1052.2 374 1066.33 409.333 1071C414.8 1071.8 424.8 1073.4 431.333 1074.6C441.333 1076.6 451.467 1076.87 493.333 1076.87C528.133 1076.87 545.067 1076.33 548.933 1075.27C552 1074.33 559.467 1073 565.6 1072.2C578.8 1070.6 615.6 1061.8 631.733 1056.47C638.133 1054.33 650 1049.8 658 1046.33C671.067 1040.73 675.733 1038.47 691.6 1029.53C709.333 1019.53 735.6 996.868 749.867 979.001C767.6 956.868 785.6 923.801 788.533 907.668C789.067 904.868 790.4 900.868 791.333 899.001C792.267 897.135 794.4 889.001 796.133 881.001C798.8 868.068 799.2 862.468 799.2 834.335C799.333 793.001 797.2 778.735 785.733 742.335C782.533 732.068 773.2 711.935 768.133 704.468C766.8 702.601 763.733 697.935 761.333 694.335C753.6 683.001 737.2 664.335 727.067 655.801C698.4 631.135 649.2 605.801 604 592.335C584.667 586.601 576.667 584.068 572 582.335C569.467 581.401 561.6 579.001 554.667 577.135C547.733 575.135 539.067 572.601 535.333 571.535C531.733 570.468 522.933 568.068 516 566.201C509.067 564.335 498 561.268 491.333 559.535C484.8 557.668 476 555.401 471.867 554.335C467.733 553.268 462.933 551.935 461.2 551.135C459.467 550.468 454.4 548.868 450 547.535C383.867 528.868 343.867 506.335 328.667 479.401C321.867 467.001 319.6 456.468 320.4 439.268C321.6 411.268 328.533 395.535 347.067 378.068C362.533 363.668 376.667 357.001 402.667 352.201C437.2 345.668 493.867 348.868 524.267 359.001C530.933 361.135 537.067 363.001 537.733 363.001C540 363.001 537.333 354.068 529.2 334.068C524.8 323.268 519.733 310.735 518 306.335C502.4 266.201 495.467 247.801 493.333 241.001C489.333 227.935 484 213.535 481.2 208.068L478.667 203.001L446.933 203.135C429.6 203.268 407.867 204.068 398.667 205.135Z" fill="#1C2A4F"/>
<path d="M534.4 203.935C533.067 204.201 532 205.268 532 206.201C532 208.068 541.2 230.868 546.533 242.335C548.533 246.735 551.867 254.868 554 260.335C556 265.801 559.067 273.935 560.8 278.335C562.4 282.735 565.867 291.668 568.4 298.335C570.933 304.868 577.067 320.868 582 333.668C586.933 346.468 593.067 362.735 595.467 369.668C597.867 376.601 601.733 387.401 604 393.668C606.267 399.935 608.933 407.401 610 410.335C610.933 413.268 613.067 419.001 614.667 423.001C616.267 427.001 619.6 436.335 622.133 443.668C624.533 451.001 628.133 461.135 630 466.335C635.733 481.801 638.667 490.068 640.267 495.001C640.933 497.535 642.133 500.201 642.667 501.001C643.2 501.668 644.4 504.468 645.067 507.001C647.2 513.668 656.8 540.735 660.933 551.535C664.933 561.668 667.6 564.068 682.8 570.468C719.2 585.668 754.533 609.535 780.8 636.601C802.667 659.001 816.267 678.868 830.4 709.668C849.733 751.268 857.067 805.001 851.333 864.335C849.067 888.201 842.533 919.268 838.133 926.335C837.333 927.801 834.8 933.135 832.667 938.335C828.8 947.668 822.8 959.535 818.8 965.668C815.067 971.668 813.333 975.268 813.333 977.535C813.333 978.868 815.333 984.868 817.733 991.135C820.267 997.268 823.867 1006.87 826 1012.33C829.333 1021.13 832.267 1028.33 836.133 1037C836.8 1038.47 839.067 1044.6 841.333 1050.73C846.933 1066.47 848.933 1069.67 852.4 1069.67C918.8 1069.93 990.933 1069.8 991.333 1069.4C991.733 1069 994.8 1060.73 998.133 1050.87C1001.47 1041 1006.27 1027.93 1008.67 1021.67C1013.47 1009.67 1015.07 1005.27 1021.47 987.001C1023.6 980.735 1025.73 974.735 1026.27 973.668C1028.4 968.468 1035.47 949.668 1045.87 921.001C1048.53 913.668 1051.2 906.468 1051.87 905.001C1054.4 899.135 1060 884.735 1061.87 879.001C1062.93 875.668 1065.07 869.668 1066.67 865.668C1071.2 853.668 1073.33 847.935 1075.33 842.335C1076.27 839.401 1078.67 833.135 1080.4 828.335C1090.67 801.135 1096.4 785.668 1098.13 779.935C1099.2 776.468 1102.8 766.601 1106.13 757.935C1109.6 749.401 1113.2 739.268 1114.27 735.668C1115.33 731.935 1116.8 728.335 1117.33 727.668C1117.87 726.868 1118.8 724.868 1119.33 723.001C1119.73 721.135 1121.6 716.068 1123.33 711.668C1125.07 707.268 1130.4 692.601 1135.33 679.001C1140.27 665.401 1145.33 651.668 1146.67 648.335C1149.47 641.401 1149.87 640.468 1169.33 585.668C1177.33 563.268 1185.73 539.935 1188.13 533.668C1192 523.268 1199.47 502.601 1207.6 479.668C1209.47 474.468 1211.73 468.201 1212.8 465.668C1215.33 458.868 1227.07 427.268 1232.8 411.668C1244 380.868 1246.93 373.001 1256.67 347.668C1262.4 333.001 1269.6 313.668 1272.8 304.735C1278.53 288.335 1282 279.135 1290 259.001C1297.6 239.668 1301.33 229.935 1301.33 229.001C1301.33 228.601 1302.8 225.001 1304.53 221.268C1308.67 212.068 1310.4 206.735 1309.73 204.601C1309.2 203.401 1290.53 203.001 1222 203.001C1129.07 203.001 1133.33 202.735 1131.47 209.668C1130.93 211.535 1130 214.201 1129.33 215.668C1127.73 219.401 1122.4 234.868 1121.2 239.668C1120.13 243.535 1116.4 253.935 1108 276.335C1105.73 282.601 1100.93 296.068 1097.33 306.335C1093.73 316.601 1089.2 329.135 1087.33 334.335C1085.47 339.401 1082.8 347.001 1081.33 351.001C1077.2 363.401 1074.67 370.201 1072.67 374.601C1071.6 376.868 1070.67 379.801 1070.67 381.001C1070.67 382.201 1070 384.468 1069.07 386.068C1067.6 388.868 1059.6 410.735 1054.67 425.935C1053.2 430.068 1051.6 434.601 1050.8 435.935C1050.13 437.268 1048.93 440.735 1048.27 443.668C1046.93 449.001 1037.07 477.401 1034.8 482.335C1032.8 486.468 1026.67 503.668 1024 512.068C1021.6 519.801 1013.87 542.068 1004 569.668C993.2 600.068 982.4 630.468 980 637.668C975.6 650.868 967.867 673.001 967.067 675.001C963.6 683.668 951.6 718.201 937.333 760.335C924.667 797.935 926 795.001 922 795.001C920.133 795.001 918.4 794.201 918.133 793.268C914.8 782.201 905.2 752.868 901.6 743.001C899.067 736.068 895.6 726.068 893.867 721.001C892.133 715.801 888.933 706.601 886.667 700.335C884.4 694.068 880.133 682.068 877.333 673.668C870.667 654.201 863.733 634.601 858.533 621.001C854.8 611.535 843.733 580.468 835.333 556.335C833.6 551.535 829.467 540.201 826 531.001C819.467 513.935 808.933 484.201 803.333 467.668C801.6 462.468 798.133 452.868 795.6 446.335C793.067 439.668 787.067 422.335 782.133 407.668C777.2 393.001 772.667 379.801 772 378.335C770.4 374.468 764.933 359.268 758.8 341.668C753.333 325.935 740.133 287.935 733.333 269.001C731.2 263.135 725.467 246.335 720.4 231.668C712.267 207.935 710.933 205.001 708 204.201C704.4 203.135 538.133 202.868 534.4 203.935Z" fill="#1C2A4F"/>
</svg>
